<?xml version="1.0" encoding="UTF-8"?>
<svg xmlns="http://www.w3.org/2000/svg" width="850" height="630" viewBox="0 0 850 630" role="img" aria-labelledby="title desc">
  <title id="title">studio cucurbits logo</title>
  <desc id="desc">Minimal dot-based pumpkin logo with studio cucurbits wordmark.</desc>
  
  <g transform="translate(-210 -270)" shape-rendering="geometricPrecision">
    <circle cx="626.287" cy="325.997" r="10.800" fill="#171614"/>
    <circle cx="626.272" cy="369.106" r="10.800" fill="#171614"/>
    <circle cx="671.211" cy="411.981" r="10.800" fill="#171614"/>
    <circle cx="626.270" cy="411.981" r="10.800" fill="#171614"/>
    <circle cx="760.830" cy="412.000" r="10.800" fill="#171614"/>
    <circle cx="581.480" cy="412.022" r="10.800" fill="#171614"/>
    <circle cx="491.377" cy="412.028" r="10.800" fill="#171614"/>
    <circle cx="716.148" cy="412.047" r="10.800" fill="#171614"/>
    <circle cx="536.225" cy="412.058" r="10.800" fill="#171614"/>
    <circle cx="760.880" cy="454.921" r="10.800" fill="#171614"/>
    <circle cx="671.199" cy="454.954" r="10.800" fill="#171614"/>
    <circle cx="716.101" cy="454.989" r="10.800" fill="#171614"/>
    <circle cx="446.500" cy="455.000" r="10.800" fill="#171614"/>
    <circle cx="536.287" cy="455.003" r="10.800" fill="#171614"/>
    <circle cx="805.480" cy="455.022" r="10.800" fill="#171614"/>
    <circle cx="491.369" cy="455.022" r="10.800" fill="#171614"/>
    <circle cx="581.451" cy="455.030" r="10.800" fill="#171614"/>
    <circle cx="626.285" cy="455.054" r="10.800" fill="#171614"/>
    <circle cx="536.273" cy="497.972" r="10.800" fill="#171614"/>
    <circle cx="671.148" cy="497.973" r="10.800" fill="#171614"/>
    <circle cx="760.819" cy="497.981" r="10.800" fill="#171614"/>
    <circle cx="446.529" cy="497.995" r="10.800" fill="#171614"/>
    <circle cx="626.332" cy="498.000" r="10.800" fill="#171614"/>
    <circle cx="805.500" cy="498.000" r="10.800" fill="#171614"/>
    <circle cx="581.471" cy="498.005" r="10.800" fill="#171614"/>
    <circle cx="491.451" cy="498.016" r="10.800" fill="#171614"/>
    <circle cx="716.140" cy="498.047" r="10.800" fill="#171614"/>
    <circle cx="491.390" cy="541.000" r="10.800" fill="#171614"/>
    <circle cx="805.500" cy="541.000" r="10.800" fill="#171614"/>
    <circle cx="446.529" cy="541.005" r="10.800" fill="#171614"/>
    <circle cx="760.874" cy="541.049" r="10.800" fill="#171614"/>
    <circle cx="686.372" cy="557.537" r="10.800" fill="#171614"/>
    <circle cx="565.712" cy="557.544" r="10.800" fill="#171614"/>
    <circle cx="491.369" cy="583.978" r="10.800" fill="#171614"/>
    <circle cx="805.480" cy="583.978" r="10.800" fill="#171614"/>
    <circle cx="446.500" cy="584.000" r="10.800" fill="#171614"/>
    <circle cx="760.867" cy="584.000" r="10.800" fill="#171614"/>
    <circle cx="760.858" cy="626.975" r="10.800" fill="#171614"/>
    <circle cx="581.480" cy="626.978" r="10.800" fill="#171614"/>
    <circle cx="805.480" cy="626.978" r="10.800" fill="#171614"/>
    <circle cx="446.570" cy="626.983" r="10.800" fill="#171614"/>
    <circle cx="536.286" cy="626.995" r="10.800" fill="#171614"/>
    <circle cx="626.290" cy="626.997" r="10.800" fill="#171614"/>
    <circle cx="716.136" cy="627.000" r="10.800" fill="#171614"/>
    <circle cx="491.366" cy="627.019" r="10.800" fill="#171614"/>
    <circle cx="671.183" cy="627.030" r="10.800" fill="#171614"/>
    <circle cx="760.863" cy="669.863" r="10.800" fill="#171614"/>
    <circle cx="716.143" cy="669.901" r="10.800" fill="#171614"/>
    <circle cx="626.253" cy="669.916" r="10.800" fill="#171614"/>
    <circle cx="536.194" cy="669.928" r="10.800" fill="#171614"/>
    <circle cx="671.137" cy="669.945" r="10.800" fill="#171614"/>
    <circle cx="491.339" cy="669.953" r="10.800" fill="#171614"/>
    <circle cx="581.447" cy="669.970" r="10.800" fill="#171614"/>
    <circle cx="626.188" cy="575.054" r="10.400" fill="#F1660D"/>
    <path d="M26.516,-1.266 C39.984,-1.266 49.359,5.469 49.359,15.766 C49.359,23.344 44.578,27.828 34.188,29.891 L24.422,31.781 C20.453,32.625 18.172,34.328 18.172,36.969 C18.172,40.047 21.141,42.438 26.078,42.438 C31.156,42.438 34.672,39.359 34.766,35.203 L48.094,35.203 C47.797,45.953 39.016,52.641 25.688,52.641 C12.250,52.641 3.812,46.188 3.812,36.422 C3.812,28.422 9.125,23.344 19.141,21.391 L28.172,19.625 C32.375,18.797 34.859,17.188 34.859,14.453 C34.859,11.281 31.594,9.031 26.266,9.031 C20.656,9.031 17.328,11.719 16.797,16.219 L2.641,16.219 C3.516,5.125 13.141,-1.266 26.516,-1.266 Z M86.721,51.562 L76.174,51.562 L76.174,65.625 L61.768,65.625 L61.768,51.562 L52.877,51.562 L52.877,40.281 L61.768,40.281 L61.768,13.672 C61.768,4.297 66.986,0.000 78.314,0.000 L86.721,0.000 L86.721,11.281 L81.205,11.281 C77.299,11.281 76.174,12.406 76.174,15.922 L76.174,40.281 L86.721,40.281 L86.721,51.562 Z M112.055,-1.078 C119.477,-1.078 124.711,2.250 128.180,8.109 L128.180,0.000 L142.289,0.000 L142.289,51.562 L127.930,51.562 L127.930,22.906 C127.930,14.891 123.773,11.328 117.820,11.328 C111.820,11.328 108.352,14.984 108.352,21.922 L108.352,51.562 L93.945,51.562 L93.945,19.281 C93.945,6.250 101.070,-1.078 112.055,-1.078 Z M172.553,-1.078 C179.350,-1.078 184.865,1.906 187.850,7.906 L187.896,7.906 L187.896,0.000 L202.053,0.000 L202.053,72.750 L187.693,72.750 L187.693,44.438 L187.646,44.438 C184.334,50.000 179.146,52.641 172.459,52.641 C159.271,52.641 150.240,41.656 150.240,25.828 C150.240,9.672 159.084,-1.078 172.553,-1.078 Z M176.271,10.641 C169.287,10.641 164.740,16.156 164.740,25.828 C164.740,35.500 169.287,41.016 176.271,41.016 C183.553,41.016 188.381,35.016 188.381,25.828 C188.381,16.609 183.553,10.641 176.271,10.641 Z M212.256,0.000 L226.662,0.000 L226.662,51.562 L212.256,51.562 L212.256,0.000 Z M219.428,58.062 C224.178,58.062 227.631,61.328 227.631,65.719 C227.631,70.125 224.178,73.391 219.428,73.391 C214.693,73.391 211.225,70.125 211.225,65.719 C211.225,61.328 214.693,58.062 219.428,58.062 Z M260.738,-1.172 C276.410,-1.172 286.957,9.578 286.957,25.734 C286.957,41.891 276.410,52.734 260.738,52.734 C245.113,52.734 234.566,41.891 234.566,25.734 C234.566,9.578 245.113,-1.172 260.738,-1.172 Z M260.738,10.500 C253.754,10.500 249.066,16.156 249.066,25.734 C249.066,35.359 253.816,41.062 260.738,41.062 C267.723,41.062 272.457,35.359 272.457,25.734 C272.457,16.156 267.770,10.500 260.738,10.500 Z M339.949,-1.172 C353.668,-1.172 363.527,7.469 364.168,19.391 L350.152,19.391 C349.215,13.969 345.949,10.453 340.137,10.453 C332.918,10.453 328.559,16.359 328.559,25.734 C328.559,35.156 332.855,41.109 340.137,41.109 C345.902,41.109 349.512,37.547 350.246,32.281 L364.168,32.281 C363.230,44.281 353.512,52.734 339.949,52.734 C324.465,52.734 314.059,41.703 314.059,25.734 C314.059,9.766 324.418,-1.172 339.949,-1.172 Z M389.936,-1.078 C397.357,-1.078 402.592,2.250 406.061,8.109 L406.061,0.000 L420.170,0.000 L420.170,51.562 L405.811,51.562 L405.811,22.906 C405.811,14.891 401.654,11.328 395.701,11.328 C389.701,11.328 386.232,14.984 386.232,21.922 L386.232,51.562 L371.826,51.562 L371.826,19.281 C371.826,6.250 378.951,-1.078 389.936,-1.078 Z M454.012,-1.172 C467.730,-1.172 477.590,7.469 478.230,19.391 L464.215,19.391 C463.277,13.969 460.012,10.453 454.199,10.453 C446.980,10.453 442.621,16.359 442.621,25.734 C442.621,35.156 446.918,41.109 454.199,41.109 C459.965,41.109 463.574,37.547 464.309,32.281 L478.230,32.281 C477.293,44.281 467.574,52.734 454.012,52.734 C438.527,52.734 428.121,41.703 428.121,25.734 C428.121,9.766 438.480,-1.172 454.012,-1.172 Z M503.998,-1.078 C511.420,-1.078 516.654,2.250 520.123,8.109 L520.123,0.000 L534.232,0.000 L534.232,51.562 L519.873,51.562 L519.873,22.906 C519.873,14.891 515.717,11.328 509.764,11.328 C503.764,11.328 500.295,14.984 500.295,21.922 L500.295,51.562 L485.889,51.562 L485.889,19.281 C485.889,6.250 493.014,-1.078 503.998,-1.078 Z M544.434,0.000 L558.840,0.000 L558.840,27.938 C558.840,35.688 563.184,39.797 569.090,39.797 C571.527,39.797 574.215,39.594 575.293,39.547 L575.293,51.812 C574.121,51.859 572.699,51.906 571.043,51.906 C564.262,51.906 560.355,48.969 558.449,42.781 L558.309,42.781 L558.309,51.562 L544.434,51.562 L544.434,0.000 Z M611.285,-1.078 C624.754,-1.078 633.598,9.672 633.598,25.828 C633.598,41.656 624.566,52.641 611.379,52.641 C604.691,52.641 599.520,50.000 596.191,44.438 L596.145,44.438 L596.145,72.750 L581.738,72.750 L581.738,0.000 L595.941,0.000 L595.941,7.906 L596.004,7.906 C598.973,1.906 604.488,-1.078 611.285,-1.078 Z M607.566,10.641 C600.301,10.641 595.457,16.609 595.457,25.828 C595.457,35.016 600.301,41.016 607.566,41.016 C614.551,41.016 619.098,35.500 619.098,25.828 C619.098,16.156 614.551,10.641 607.566,10.641 Z M641.504,0.000 L655.910,0.000 L655.910,51.562 L641.504,51.562 L641.504,0.000 Z M648.676,58.062 C653.426,58.062 656.879,61.328 656.879,65.719 C656.879,70.125 653.426,73.391 648.676,73.391 C643.941,73.391 640.473,70.125 640.473,65.719 C640.473,61.328 643.941,58.062 648.676,58.062 Z M695.705,51.562 L685.158,51.562 L685.158,65.625 L670.752,65.625 L670.752,51.562 L661.861,51.562 L661.861,40.281 L670.752,40.281 L670.752,13.672 C670.752,4.297 675.971,0.000 687.299,0.000 L695.705,0.000 L695.705,11.281 L690.189,11.281 C686.283,11.281 685.158,12.406 685.158,15.922 L685.158,40.281 L695.705,40.281 L695.705,51.562 Z M724.367,-1.266 C737.836,-1.266 747.211,5.469 747.211,15.766 C747.211,23.344 742.430,27.828 732.039,29.891 L722.273,31.781 C718.305,32.625 716.023,34.328 716.023,36.969 C716.023,40.047 718.992,42.438 723.930,42.438 C729.008,42.438 732.523,39.359 732.617,35.203 L745.945,35.203 C745.648,45.953 736.867,52.641 723.539,52.641 C710.102,52.641 701.664,46.188 701.664,36.422 C701.664,28.422 706.977,23.344 716.992,21.391 L726.023,19.625 C730.227,18.797 732.711,17.188 732.711,14.453 C732.711,11.281 729.445,9.031 724.117,9.031 C718.508,9.031 715.180,11.719 714.648,16.219 L700.492,16.219 C701.367,5.125 710.992,-1.266 724.367,-1.266 Z" transform="translate(257.418 833.757) scale(0.977745 -0.977745)" fill="#171614" fill-rule="nonzero"/>
    <circle cx="1002.941" cy="831.995" r="7.400" fill="#F1660D"/>
  </g>
</svg>
